<svg width="320" height="186" viewBox="0 0 320 186" fill="none" xmlns="http://www.w3.org/2000/svg">
<!-- Theater interior illustration based on Figma design -->
<!-- Background -->
<rect width="320" height="186" fill="#F8F9FA"/>

<!-- Theater screen -->
<rect x="10" y="20" width="300" height="60" rx="4" fill="#E5E5E5" stroke="#D1D5DB"/>

<!-- Ceiling details -->
<rect x="50" y="10" width="220" height="15" fill="#F3F4F6"/>
<circle cx="80" cy="17" r="3" fill="#FEF3C7"/>
<circle cx="120" cy="17" r="3" fill="#FEF3C7"/>
<circle cx="160" cy="17" r="3" fill="#FEF3C7"/>
<circle cx="200" cy="17" r="3" fill="#FEF3C7"/>
<circle cx="240" cy="17" r="3" fill="#FEF3C7"/>

<!-- Seating rows -->
<g>
<!-- Front row (red seats) -->
<g transform="translate(40, 90)">
<rect x="0" y="0" width="12" height="15" rx="6" fill="#EF4444"/>
<rect x="15" y="0" width="12" height="15" rx="6" fill="#EF4444"/>
<rect x="30" y="0" width="12" height="15" rx="6" fill="#EF4444"/>
<rect x="45" y="0" width="12" height="15" rx="6" fill="#EF4444"/>
<rect x="60" y="0" width="12" height="15" rx="6" fill="#EF4444"/>
<rect x="75" y="0" width="12" height="15" rx="6" fill="#EF4444"/>
<rect x="90" y="0" width="12" height="15" rx="6" fill="#EF4444"/>
<rect x="105" y="0" width="12" height="15" rx="6" fill="#EF4444"/>
<rect x="120" y="0" width="12" height="15" rx="6" fill="#EF4444"/>
<rect x="135" y="0" width="12" height="15" rx="6" fill="#EF4444"/>
<rect x="150" y="0" width="12" height="15" rx="6" fill="#EF4444"/>
<rect x="165" y="0" width="12" height="15" rx="6" fill="#EF4444"/>
<rect x="180" y="0" width="12" height="15" rx="6" fill="#EF4444"/>
<rect x="195" y="0" width="12" height="15" rx="6" fill="#EF4444"/>
<rect x="210" y="0" width="12" height="15" rx="6" fill="#EF4444"/>
<rect x="225" y="0" width="12" height="15" rx="6" fill="#EF4444"/>
</g>

<!-- Middle row (lighter red seats) -->
<g transform="translate(30, 110)">
<rect x="0" y="0" width="12" height="15" rx="6" fill="#F87171"/>
<rect x="15" y="0" width="12" height="15" rx="6" fill="#F87171"/>
<rect x="30" y="0" width="12" height="15" rx="6" fill="#F87171"/>
<rect x="45" y="0" width="12" height="15" rx="6" fill="#F87171"/>
<rect x="60" y="0" width="12" height="15" rx="6" fill="#F87171"/>
<rect x="75" y="0" width="12" height="15" rx="6" fill="#F87171"/>
<rect x="90" y="0" width="12" height="15" rx="6" fill="#F87171"/>
<rect x="105" y="0" width="12" height="15" rx="6" fill="#F87171"/>
<rect x="120" y="0" width="12" height="15" rx="6" fill="#F87171"/>
<rect x="135" y="0" width="12" height="15" rx="6" fill="#F87171"/>
<rect x="150" y="0" width="12" height="15" rx="6" fill="#F87171"/>
<rect x="165" y="0" width="12" height="15" rx="6" fill="#F87171"/>
<rect x="180" y="0" width="12" height="15" rx="6" fill="#F87171"/>
<rect x="195" y="0" width="12" height="15" rx="6" fill="#F87171"/>
<rect x="210" y="0" width="12" height="15" rx="6" fill="#F87171"/>
<rect x="225" y="0" width="12" height="15" rx="6" fill="#F87171"/>
<rect x="240" y="0" width="12" height="15" rx="6" fill="#F87171"/>
<rect x="255" y="0" width="12" height="15" rx="6" fill="#F87171"/>
</g>

<!-- Back row (gray seats) -->
<g transform="translate(20, 130)">
<rect x="0" y="0" width="12" height="15" rx="6" fill="#D1D5DB"/>
<rect x="15" y="0" width="12" height="15" rx="6" fill="#D1D5DB"/>
<rect x="30" y="0" width="12" height="15" rx="6" fill="#D1D5DB"/>
<rect x="45" y="0" width="12" height="15" rx="6" fill="#D1D5DB"/>
<rect x="60" y="0" width="12" height="15" rx="6" fill="#D1D5DB"/>
<rect x="75" y="0" width="12" height="15" rx="6" fill="#D1D5DB"/>
<rect x="90" y="0" width="12" height="15" rx="6" fill="#D1D5DB"/>
<rect x="105" y="0" width="12" height="15" rx="6" fill="#D1D5DB"/>
<rect x="120" y="0" width="12" height="15" rx="6" fill="#D1D5DB"/>
<rect x="135" y="0" width="12" height="15" rx="6" fill="#D1D5DB"/>
<rect x="150" y="0" width="12" height="15" rx="6" fill="#D1D5DB"/>
<rect x="165" y="0" width="12" height="15" rx="6" fill="#D1D5DB"/>
<rect x="180" y="0" width="12" height="15" rx="6" fill="#D1D5DB"/>
<rect x="195" y="0" width="12" height="15" rx="6" fill="#D1D5DB"/>
<rect x="210" y="0" width="12" height="15" rx="6" fill="#D1D5DB"/>
<rect x="225" y="0" width="12" height="15" rx="6" fill="#D1D5DB"/>
<rect x="240" y="0" width="12" height="15" rx="6" fill="#D1D5DB"/>
<rect x="255" y="0" width="12" height="15" rx="6" fill="#D1D5DB"/>
<rect x="270" y="0" width="12" height="15" rx="6" fill="#D1D5DB"/>
</g>
</g>

<!-- Side walls -->
<polygon points="0,80 10,90 10,186 0,186" fill="#FCA5A5"/>
<polygon points="320,80 310,90 310,186 320,186" fill="#DC2626"/>

<!-- Floor -->
<polygon points="10,150 310,150 320,186 0,186" fill="#FEE2E2"/>

<!-- Perspective lines -->
<line x1="10" y1="80" x2="310" y2="80" stroke="#E5E7EB" stroke-width="1"/>
<line x1="0" y1="80" x2="320" y2="80" stroke="#D1D5DB" stroke-width="0.5"/>
</svg>